<svg width="86" height="87" viewBox="0 0 86 87" fill="none" xmlns="http://www.w3.org/2000/svg">
<g clip-path="url(#clip0_25_705)">
<path d="M12.3026 38.3229C5.25534 31.2757 5.25534 19.8498 12.3026 12.8026C19.3498 5.7557 30.7757 5.7557 37.8229 12.8026L55.3411 30.3208L29.8208 55.8411L12.3026 38.3229Z" fill="white"/>
<path d="M74.5893 49.5693C81.6365 56.6166 81.6365 68.0421 74.5893 75.0893C67.542 82.1365 56.1162 82.1365 49.0693 75.0893L31.5511 57.5714L57.0714 32.0511L74.5893 49.5693Z" fill="#E61717"/>
<mask id="mask0_25_705" style="mask-type:luminance" maskUnits="userSpaceOnUse" x="31" y="32" width="49" height="49">
<path d="M74.5893 49.5693C81.6365 56.6166 81.6365 68.0421 74.5893 75.0893C67.542 82.1365 56.1162 82.1365 49.0693 75.0893L31.5511 57.5714L57.0714 32.0511L74.5893 49.5693Z" fill="white"/>
</mask>
<g mask="url(#mask0_25_705)">
<path d="M75.1115 49.0471C82.447 56.3826 82.447 68.2761 75.1115 75.6116C67.7757 82.947 55.8825 82.947 48.547 75.6116L49.5912 74.5674C56.3502 81.3263 67.3084 81.3263 74.0674 74.5674C80.8263 67.8084 80.8263 56.8502 74.0674 50.0912L75.1115 49.0471ZM57.5933 31.5292L75.1115 49.0471C82.447 56.3826 82.447 68.2761 75.1115 75.6116L74.0674 74.5674C80.8263 67.8084 80.8263 56.8502 74.0674 50.0912L56.5491 32.573L57.5933 31.5292ZM75.1115 75.6116C67.7757 82.947 55.8825 82.947 48.547 75.6116L31.0292 58.0933L32.073 57.0491L49.5912 74.5674C56.3502 81.3263 67.3084 81.3263 74.0674 74.5674L75.1115 75.6116Z" fill="white"/>
</g>
<path d="M11.6541 42.8646L8.84227 40.0532C0.361823 31.5728 0.361823 17.8231 8.84227 9.34224C17.3231 0.861798 31.0728 0.861798 39.5532 9.34224L42.3647 12.154" stroke="#3C3C3C" stroke-width="3" stroke-linecap="round"/>
<path d="M43.6624 47.1902C36.018 54.8346 23.624 54.8346 15.9795 47.1902L14.2492 45.4602" stroke="#3C3C3C" stroke-width="3" stroke-linecap="round"/>
<path d="M46.6902 44.1624C54.3346 36.518 54.3346 24.1239 46.6902 16.4795L44.9602 14.7492" stroke="#3C3C3C" stroke-width="3" stroke-linecap="round"/>
<path d="M44.5275 75.7382L47.339 78.5499C55.8194 87.0304 69.5691 87.0304 78.0499 78.5499C86.5304 70.0691 86.5304 56.3194 78.0499 47.839L75.2381 45.0275" stroke="#3C3C3C" stroke-width="3" stroke-linecap="round"/>
<path d="M40.2021 43.7298C32.5576 51.3743 32.5576 63.7683 40.2021 71.4127L41.932 73.1431" stroke="#3C3C3C" stroke-width="3" stroke-linecap="round"/>
<path d="M43.2299 40.7021C50.8743 33.0577 63.2683 33.0577 70.9127 40.7021L72.6431 42.4321" stroke="#3B3B3B" stroke-width="3" stroke-linecap="round"/>
</g>
<defs>
<clipPath id="clip0_25_705">
<rect width="86" height="86" fill="white" transform="translate(0 0.5)"/>
</clipPath>
</defs>
</svg>
