<svg width="512" height="512" viewBox="0 0 512 512" fill="none" xmlns="http://www.w3.org/2000/svg">
<rect width="512" height="512" fill="white"/>
<path d="M171.977 241.119C152.884 222.026 152.884 191.07 171.977 171.977V171.977C191.07 152.885 222.026 152.885 241.119 171.977L288.581 219.439L219.439 288.581L171.977 241.119Z" fill="#E61717"/>
<mask id="path-2-inside-1_2_40" fill="white">
<path d="M340.73 271.589C359.823 290.682 359.823 321.637 340.73 340.73V340.73C321.637 359.823 290.681 359.823 271.589 340.73L224.127 293.269L293.269 224.127L340.73 271.589Z"/>
</mask>
<path d="M340.73 271.589C359.823 290.682 359.823 321.637 340.73 340.73V340.73C321.637 359.823 290.681 359.823 271.589 340.73L224.127 293.269L293.269 224.127L340.73 271.589Z" fill="white"/>
<path d="M342.145 270.174C362.019 290.048 362.019 322.271 342.145 342.145C322.27 362.019 290.048 362.019 270.174 342.145L273.003 339.316C291.315 357.628 321.004 357.628 339.316 339.316C357.628 321.004 357.628 291.315 339.316 273.003L342.145 270.174ZM224.127 293.269L293.269 224.127L224.127 293.269ZM294.683 222.713L342.145 270.174C362.019 290.048 362.019 322.271 342.145 342.145L339.316 339.316C357.628 321.004 357.628 291.315 339.316 273.003L291.854 225.541L294.683 222.713ZM342.145 342.145C322.27 362.019 290.048 362.019 270.174 342.145L222.713 294.683L225.541 291.854L273.003 339.316C291.315 357.628 321.004 357.628 339.316 339.316L342.145 342.145Z" fill="#E61717" mask="url(#path-2-inside-1_2_40)"/>
<path d="M170.22 253.424L162.602 245.807C139.626 222.831 139.626 185.579 162.602 162.602V162.602C185.579 139.626 222.831 139.626 245.807 162.602L253.424 170.22" stroke="#3C3C3C" stroke-width="4" stroke-linecap="round"/>
<path d="M256.94 265.143V265.143C236.229 285.854 202.65 285.854 181.939 265.143L177.251 260.456" stroke="#3C3C3C" stroke-width="4" stroke-linecap="round"/>
<path d="M265.143 256.94V256.94C285.854 236.229 285.854 202.65 265.143 181.939L260.456 177.251" stroke="#3C3C3C" stroke-width="4" stroke-linecap="round"/>
<path d="M259.284 342.488L266.901 350.106C289.877 373.082 327.129 373.082 350.106 350.106V350.106C373.082 327.129 373.082 289.877 350.106 266.901L342.488 259.284" stroke="#3C3C3C" stroke-width="4" stroke-linecap="round"/>
<path d="M247.565 255.768V255.768C226.854 276.479 226.854 310.058 247.565 330.769L252.252 335.457" stroke="#3C3C3C" stroke-width="4" stroke-linecap="round"/>
<path d="M255.768 247.565V247.565C276.479 226.854 310.058 226.854 330.769 247.565L335.457 252.252" stroke="#3B3B3B" stroke-width="4" stroke-linecap="round"/>
<path d="M144.4 419.632V431.776C144.4 432.192 144.192 432.4 143.776 432.4H139.696C139.312 432.4 139.12 432.192 139.12 431.776V399.664C139.12 399.504 139.168 399.376 139.264 399.28C139.392 399.152 139.536 399.088 139.696 399.088H146.752C150.304 399.088 153.104 399.952 155.152 401.68C157.232 403.408 158.272 405.936 158.272 409.264C158.272 411.024 157.968 412.512 157.36 413.728C156.784 414.912 155.952 415.968 154.864 416.896C153.808 417.792 152.544 418.48 151.072 418.96C149.632 419.408 148.048 419.632 146.32 419.632H144.4ZM144.4 404.128V414.64H146.464C148.48 414.64 150.048 414.176 151.168 413.248C152.32 412.32 152.896 410.976 152.896 409.216C152.896 407.392 152.4 406.096 151.408 405.328C150.416 404.528 149.12 404.128 147.52 404.128H144.4ZM163.216 432.4C163.056 432.4 162.912 432.336 162.784 432.208C162.688 432.112 162.64 431.968 162.64 431.776V428.032C162.64 427.872 162.688 427.744 162.784 427.648C162.912 427.52 163.056 427.456 163.216 427.456H169.744V412.672H164.08C163.92 412.672 163.776 412.624 163.648 412.528C163.552 412.4 163.504 412.24 163.504 412.048V408.304C163.504 408.144 163.552 408.016 163.648 407.92C163.776 407.792 163.92 407.728 164.08 407.728H174.352C174.512 407.728 174.64 407.792 174.736 407.92C174.864 408.016 174.928 408.144 174.928 408.304V427.456H180.832C180.992 427.456 181.12 427.52 181.216 427.648C181.344 427.744 181.408 427.872 181.408 428.032V431.776C181.408 432.192 181.216 432.4 180.832 432.4H163.216ZM171.664 403.936C170.64 403.936 169.776 403.584 169.072 402.88C168.368 402.176 168.016 401.328 168.016 400.336C168.016 399.28 168.368 398.4 169.072 397.696C169.776 396.96 170.64 396.592 171.664 396.592C172.72 396.592 173.6 396.96 174.304 397.696C175.04 398.4 175.408 399.28 175.408 400.336C175.408 401.328 175.04 402.176 174.304 402.88C173.6 403.584 172.72 403.936 171.664 403.936ZM187.36 432.4C187.2 432.4 187.056 432.336 186.928 432.208C186.832 432.112 186.784 431.968 186.784 431.776V428.032C186.784 427.872 186.832 427.744 186.928 427.648C187.056 427.52 187.2 427.456 187.36 427.456H193.888V401.296H188.896C188.736 401.296 188.592 401.248 188.464 401.152C188.368 401.024 188.32 400.864 188.32 400.672V396.928C188.32 396.768 188.368 396.64 188.464 396.544C188.592 396.416 188.736 396.352 188.896 396.352H198.496C198.656 396.352 198.784 396.416 198.88 396.544C199.008 396.64 199.072 396.768 199.072 396.928V427.456H204.976C205.136 427.456 205.264 427.52 205.36 427.648C205.488 427.744 205.552 427.872 205.552 428.032V431.776C205.552 432.192 205.36 432.4 204.976 432.4H187.36ZM211.36 432.4C211.2 432.4 211.056 432.336 210.928 432.208C210.832 432.112 210.784 431.968 210.784 431.776V428.032C210.784 427.872 210.832 427.744 210.928 427.648C211.056 427.52 211.2 427.456 211.36 427.456H217.888V401.296H212.896C212.736 401.296 212.592 401.248 212.464 401.152C212.368 401.024 212.32 400.864 212.32 400.672V396.928C212.32 396.768 212.368 396.64 212.464 396.544C212.592 396.416 212.736 396.352 212.896 396.352H222.496C222.656 396.352 222.784 396.416 222.88 396.544C223.008 396.64 223.072 396.768 223.072 396.928V427.456H228.976C229.136 427.456 229.264 427.52 229.36 427.648C229.488 427.744 229.552 427.872 229.552 428.032V431.776C229.552 432.192 229.36 432.4 228.976 432.4H211.36ZM276.304 431.824C275.568 432.08 274.784 432.32 273.952 432.544C273.152 432.768 272.24 432.88 271.216 432.88C269.552 432.88 267.904 432.432 266.272 431.536C264.64 430.672 263.248 429.424 262.096 427.792C260.944 426.128 260.064 424.24 259.456 422.128C258.88 420.016 258.592 417.856 258.592 415.648C258.592 413.44 258.88 411.28 259.456 409.168C260.064 407.056 260.928 405.216 262.048 403.648C263.2 402.08 264.592 400.848 266.224 399.952C267.888 399.056 269.552 398.608 271.216 398.608C271.984 398.608 272.8 398.688 273.664 398.848C274.56 398.976 275.456 399.216 276.352 399.568C276.608 399.664 276.752 399.776 276.784 399.904C276.848 400.032 276.864 400.256 276.832 400.576L276.784 404.224C276.784 404.672 276.72 404.912 276.592 404.944C276.464 404.944 276.24 404.88 275.92 404.752C274.448 404.016 272.88 403.648 271.216 403.648C270.096 403.648 269.056 403.968 268.096 404.608C267.136 405.216 266.352 406.128 265.744 407.344C265.136 408.528 264.672 409.872 264.352 411.376C264.032 412.848 263.872 414.272 263.872 415.648C263.872 417.024 264.048 418.48 264.4 420.016C264.752 421.52 265.232 422.864 265.84 424.048C266.448 425.232 267.264 426.16 268.288 426.832C269.312 427.504 270.336 427.84 271.36 427.84C272.096 427.84 272.832 427.76 273.568 427.6C274.336 427.44 275.12 427.2 275.92 426.88C276.24 426.72 276.448 426.672 276.544 426.736C276.64 426.8 276.688 426.928 276.688 427.12L276.832 430.816C276.864 431.104 276.848 431.312 276.784 431.44C276.72 431.6 276.56 431.728 276.304 431.824ZM296.224 432.4C295.84 432.4 295.648 432.208 295.648 431.824V419.056C295.648 416.656 295.376 414.912 294.832 413.824C294.288 412.704 293.408 412.144 292.192 412.144C289.28 412.144 287.664 413.84 287.344 417.232V431.824C287.344 432.208 287.168 432.4 286.816 432.4H282.784C282.656 432.4 282.528 432.336 282.4 432.208C282.304 432.112 282.256 431.984 282.256 431.824V396.88C282.256 396.72 282.304 396.592 282.4 396.496C282.528 396.368 282.656 396.304 282.784 396.304H286.528C286.656 396.304 286.768 396.368 286.864 396.496C286.96 396.592 287.008 396.72 287.008 396.88V409.84C287.712 408.976 288.528 408.336 289.456 407.92C290.416 407.472 291.392 407.248 292.384 407.248C297.984 407.248 300.784 411.168 300.784 419.008V431.824C300.784 431.984 300.72 432.112 300.592 432.208C300.496 432.336 300.384 432.4 300.256 432.4H296.224ZM321.136 432.4C320.912 432.4 320.768 432.384 320.704 432.352C320.672 432.32 320.656 432.208 320.656 432.016V429.808C319.888 430.928 318.928 431.76 317.776 432.304C316.624 432.88 315.456 433.168 314.272 433.168C313.344 433.168 312.352 432.992 311.296 432.64C310.272 432.32 309.392 431.824 308.656 431.152C307.92 430.512 307.328 429.712 306.88 428.752C306.464 427.792 306.256 426.672 306.256 425.392C306.256 424.016 306.528 422.768 307.072 421.648C307.648 420.496 308.512 419.536 309.664 418.768C310.816 418 312.208 417.44 313.84 417.088C315.504 416.704 317.616 416.512 320.176 416.512C320.176 415.936 320.112 415.408 319.984 414.928C319.888 414.416 319.696 413.936 319.408 413.488C319.12 413.04 318.704 412.672 318.16 412.384C317.648 412.064 317.008 411.904 316.24 411.904C315.216 411.904 314.144 412.096 313.024 412.48C311.936 412.864 310.912 413.376 309.952 414.016C309.472 414.336 309.136 414.48 308.944 414.448C308.784 414.416 308.704 414.24 308.704 413.92V410.176C308.704 410.112 308.688 410 308.656 409.84C308.656 409.648 308.72 409.504 308.848 409.408C309.008 409.248 309.216 409.104 309.472 408.976C310.432 408.432 311.488 407.984 312.64 407.632C313.792 407.28 314.96 407.104 316.144 407.104C319.216 407.104 321.504 407.888 323.008 409.456C324.544 410.992 325.312 413.216 325.312 416.128V426.688C325.312 427.552 325.312 428.432 325.312 429.328C325.344 430.224 325.408 431.024 325.504 431.728C325.536 432.176 325.36 432.4 324.976 432.4H321.136ZM311.392 425.056C311.392 426.176 311.728 427.024 312.4 427.6C313.072 428.144 313.792 428.416 314.56 428.416C316.256 428.416 317.648 427.76 318.736 426.448C319.824 425.104 320.368 423.488 320.368 421.6V421.072C316.944 421.072 314.592 421.424 313.312 422.128C312.032 422.8 311.392 423.776 311.392 425.056ZM331.216 432.4C331.056 432.4 330.912 432.336 330.784 432.208C330.688 432.112 330.64 431.968 330.64 431.776V428.032C330.64 427.872 330.688 427.744 330.784 427.648C330.912 427.52 331.056 427.456 331.216 427.456H337.744V412.672H332.08C331.92 412.672 331.776 412.624 331.648 412.528C331.552 412.4 331.504 412.24 331.504 412.048V408.304C331.504 408.144 331.552 408.016 331.648 407.92C331.776 407.792 331.92 407.728 332.08 407.728H342.352C342.512 407.728 342.64 407.792 342.736 407.92C342.864 408.016 342.928 408.144 342.928 408.304V427.456H348.832C348.992 427.456 349.12 427.52 349.216 427.648C349.344 427.744 349.408 427.872 349.408 428.032V431.776C349.408 432.192 349.216 432.4 348.832 432.4H331.216ZM339.664 403.936C338.64 403.936 337.776 403.584 337.072 402.88C336.368 402.176 336.016 401.328 336.016 400.336C336.016 399.28 336.368 398.4 337.072 397.696C337.776 396.96 338.64 396.592 339.664 396.592C340.72 396.592 341.6 396.96 342.304 397.696C343.04 398.4 343.408 399.28 343.408 400.336C343.408 401.328 343.04 402.176 342.304 402.88C341.6 403.584 340.72 403.936 339.664 403.936ZM368.848 432.4C368.688 432.4 368.544 432.32 368.416 432.16C368.32 432.032 368.272 431.888 368.272 431.728V418.336C368.272 416.032 367.968 414.368 367.36 413.344C366.784 412.32 365.904 411.808 364.72 411.808C363.344 411.808 362.192 412.4 361.264 413.584C360.368 414.736 359.92 416.416 359.92 418.624V431.776C359.92 432.192 359.728 432.4 359.344 432.4H355.408C355.248 432.4 355.104 432.32 354.976 432.16C354.88 432.032 354.832 431.888 354.832 431.728V414.496C354.832 413.28 354.816 412.112 354.784 410.992C354.784 409.872 354.752 408.992 354.688 408.352C354.624 407.936 354.848 407.728 355.36 407.728H359.104C359.456 407.728 359.6 407.856 359.536 408.112L359.488 409.84C360.032 409.072 360.784 408.416 361.744 407.872C362.736 407.328 363.776 407.056 364.864 407.056C367.168 407.056 369.152 407.92 370.816 409.648C372.512 411.344 373.36 414 373.36 417.616V431.776C373.36 432.192 373.168 432.4 372.784 432.4H368.848Z" fill="black"/>
</svg>
