<svg width="140" height="140" viewBox="0 0 140 140" fill="none" xmlns="http://www.w3.org/2000/svg">
<g clip-path="url(#clip0_6_189)">
<path d="M18.616 60.6495C7.00878 49.0423 7.00878 30.2232 18.616 18.616C30.2232 7.00942 49.0422 7.00942 60.6494 18.616L89.503 47.4696L47.4695 89.503L18.616 60.6495Z" fill="#E61717"/>
<path d="M121.206 79.173C132.813 90.7802 132.813 109.599 121.206 121.206C109.599 132.813 90.7796 132.813 79.173 121.206L50.3195 92.3529L92.3529 50.3195L121.206 79.173Z" fill="white"/>
<mask id="mask0_6_189" style="mask-type:luminance" maskUnits="userSpaceOnUse" x="50" y="50" width="80" height="80">
<path d="M121.206 79.173C132.813 90.7802 132.813 109.599 121.206 121.206C109.599 132.813 90.7796 132.813 79.173 121.206L50.3195 92.3529L92.3529 50.3195L121.206 79.173Z" fill="white"/>
</mask>
<g mask="url(#mask0_6_189)">
<path d="M122.066 78.3128C134.148 90.3948 134.148 109.984 122.066 122.066C109.983 134.148 90.3948 134.148 78.3128 122.066L80.0326 120.346C91.165 131.479 109.214 131.479 120.346 120.346C131.479 109.214 131.479 91.165 120.346 80.0326L122.066 78.3128ZM93.2125 49.4598L122.066 78.3128C134.148 90.3948 134.148 109.984 122.066 122.066L120.346 120.346C131.479 109.214 131.479 91.165 120.346 80.0326L91.4927 51.1791L93.2125 49.4598ZM122.066 122.066C109.983 134.148 90.3948 134.148 78.3128 122.066L49.4598 93.2125L51.1791 91.4927L80.0326 120.346C91.165 131.479 109.214 131.479 120.346 120.346L122.066 122.066Z" fill="#E61717"/>
</g>
<path d="M17.5478 68.13L12.9166 63.4994C-1.05115 49.5316 -1.05115 26.885 12.9166 12.9166C26.885 -1.05115 49.5316 -1.05115 63.4994 12.9166L68.13 17.5478" stroke="#3C3C3C" stroke-width="4" stroke-linecap="round"/>
<path d="M70.2675 75.2544C57.6767 87.8452 37.263 87.8452 24.6722 75.2544L21.8222 72.405" stroke="#3C3C3C" stroke-width="4" stroke-linecap="round"/>
<path d="M75.2544 70.2675C87.8452 57.6767 87.8452 37.263 75.2544 24.6722L72.405 21.8222" stroke="#3C3C3C" stroke-width="4" stroke-linecap="round"/>
<path d="M71.6924 122.275L76.323 126.906C90.2908 140.874 112.937 140.874 126.906 126.906C140.874 112.937 140.874 90.2908 126.906 76.323L122.275 71.6924" stroke="#3C3C3C" stroke-width="4" stroke-linecap="round"/>
<path d="M64.5681 69.5551C51.9773 82.1459 51.9773 102.56 64.5681 115.15L67.4175 118" stroke="#3C3C3C" stroke-width="4" stroke-linecap="round"/>
<path d="M69.5551 64.5681C82.1459 51.9773 102.56 51.9773 115.15 64.5681L118 67.4175" stroke="#3B3B3B" stroke-width="4" stroke-linecap="round"/>
</g>
<defs>
<clipPath id="clip0_6_189">
<rect width="140" height="140" fill="white"/>
</clipPath>
</defs>
</svg>
